<svg id="Capa_1" enable-background="new 0 0 497 497" height="512" viewBox="0 0 497 497" width="512" xmlns="http://www.w3.org/2000/svg"><g><path d="m105.594 400.818v79.949c0 12.294 13.15 20.113 23.951 14.242l19.301-10.49c7.137-3.879 15.753-3.879 22.89 0l19.301 10.49c10.801 5.871 23.951-1.948 23.951-14.242v-79.949l-54.697-25.007z" fill="#ff6f7f"/><path d="m105.594 400.818v30h109.393v-30l-54.696-25.007z" fill="#fc5c70"/><path d="m341.589 0 51.064 220.452-51.064 180.366h-256.038c-23.911 0-43.293-19.381-43.293-43.293v-314.222c.001-23.911 19.382-43.303 43.293-43.303z" fill="#827f98"/><path d="m443.718 43.303v314.223c0 23.911-19.381 43.293-43.293 43.293h-58.836v-400.819h58.836c23.911 0 43.293 19.392 43.293 43.303z" fill="#e8a882"/><path d="m427.897 165.344h-81.297c-30.716 0-55.545 25.142-55.102 55.918.435 30.254 25.67 54.298 55.927 54.298h80.473c14.826 0 26.844-12.018 26.844-26.844v-56.528c0-14.826-12.019-26.844-26.845-26.844z" fill="#f1c6ad"/><path d="m242.149 53.321h-100.45c-16.861 0-30.529 13.668-30.529 30.529v33.476c0 16.861 13.668 30.529 30.529 30.529h100.45c16.861 0 30.529-13.668 30.529-30.529v-33.476c0-16.861-13.668-30.529-30.529-30.529z" fill="#fff"/><g><path d="m228.838 108.088h-73.828c-4.142 0-7.5-3.358-7.5-7.5s3.358-7.5 7.5-7.5h73.828c4.142 0 7.5 3.358 7.5 7.5s-3.358 7.5-7.5 7.5z" fill="#6a647f"/></g><circle cx="346.616" cy="221.262" fill="#e8a882" r="19.229"/><g><g><path d="m103.025 325.91c-4.142 0-7.5-3.358-7.5-7.5v-17.083c0-4.142 3.358-7.5 7.5-7.5s7.5 3.358 7.5 7.5v17.083c0 4.142-3.358 7.5-7.5 7.5z" fill="#423e4f"/></g><g><path d="m280.823 325.91c-4.143 0-7.5-3.358-7.5-7.5v-17.083c0-4.142 3.357-7.5 7.5-7.5s7.5 3.358 7.5 7.5v17.083c0 4.142-3.358 7.5-7.5 7.5z" fill="#423e4f"/></g><g><path d="m191.924 336.079c-11.15 0-21.753-4.829-29.092-13.25-2.721-3.123-2.396-7.86.727-10.582 3.122-2.721 7.86-2.396 10.582.727 4.489 5.151 10.97 8.105 17.783 8.105s13.295-2.954 17.784-8.105c2.722-3.123 7.459-3.448 10.582-.727s3.448 7.459.727 10.582c-7.339 8.42-17.943 13.25-29.093 13.25z" fill="#423e4f"/></g></g><path d="m65.987 224.26c0-118.217 22.68-187.722 83.719-224.26h-64.155c-23.911 0-43.292 19.392-43.292 43.303v314.223c0 23.911 19.381 43.292 43.293 43.292h50.317c-43.33-46.158-69.882-108.254-69.882-176.558z" fill="#77718c"/></g></svg>